<svg width="146" height="25" viewBox="0 0 146 25" fill="none" xmlns="http://www.w3.org/2000/svg">
<path d="M12.0127 0L14.7097 8.30054H23.4374L16.3765 13.4306L19.0735 21.7311L12.0127 16.6011L4.95179 21.7311L7.6488 13.4306L0.587941 8.30054H9.31565L12.0127 0Z" fill="#E23744"/>
<path d="M42.5063 0L45.2033 8.30054H53.931L46.8702 13.4306L49.5672 21.7311L42.5063 16.6011L35.4454 21.7311L38.1425 13.4306L31.0816 8.30054H39.8093L42.5063 0Z" fill="#E23744"/>
<path d="M73 0L75.697 8.30054H84.4247L77.3639 13.4306L80.0609 21.7311L73 16.6011L65.9392 21.7311L68.6362 13.4306L61.5753 8.30054H70.303L73 0Z" fill="#E23744"/>
<path d="M103.494 0L106.191 8.30054H114.918L107.858 13.4306L110.555 21.7311L103.494 16.6011L96.4328 21.7311L99.1298 13.4306L92.069 8.30054H100.797L103.494 0Z" fill="#E23744"/>
<path d="M133.987 1.61804L136.209 8.45505L136.321 8.80054H136.684H143.873L138.057 13.0261L137.763 13.2396L137.876 13.5851L140.097 20.4221L134.281 16.1966L133.987 15.9831L133.693 16.1966L127.878 20.4221L130.099 13.5851L130.211 13.2396L129.917 13.0261L124.102 8.80054H131.29H131.654L131.766 8.45505L133.987 1.61804Z" fill="white" stroke="#E23744"/>
</svg>
